<svg xmlns="http://www.w3.org/2000/svg" xmlns:xlink="http://www.w3.org/1999/xlink" version="1.0" id="katman_1" x="0px" y="0px" style="enable-background:new 0 0 800 600;" xml:space="preserve" viewBox="96.5 239.8 606.5 120.3">
<style type="text/css">
	.st0{fill:#BCBBBB;}
	.st1{fill:#F48024;}
</style>
<path d="M233.1,314.6l-7.2-0.7c-5.5-0.3-7.5-2.6-7.5-6.5c0-4.6,3.3-7.2,9.8-7.2c4.2-0.3,8.5,1,11.7,3.6l4.2-4.2  c-4.6-3.3-10.1-4.9-15.6-4.6c-9.4,0-15.9,4.9-15.9,12.7c0,7.2,4.6,11.1,13,11.7l7.2,0.7c5.2,0.3,7.2,2.6,7.2,6.5  c0,5.2-4.6,7.8-11.7,7.8c-5.2,0.3-10.1-1.6-13.7-5.2l-4.2,4.2c4.9,4.6,11.4,6.5,17.9,6.2c10.4,0,17.9-4.9,17.9-13.3  S240.9,315.3,233.1,314.6z M284.4,294.8c-7.2,0-11.4,1.3-15.3,6.2l4.2,4.2c2.6-3.6,6.8-5.5,11.1-4.9c8.1,0,11.1,3.3,11.1,9.4v4.2  h-13c-9.8,0-15,4.9-15,12.7c0,3.3,1,6.5,3.3,8.8c2.6,2.9,6.2,3.9,12.4,3.9c4.6,0.3,9.4-1.3,12.7-4.6v4.2h6.5v-29.6  C302,300,296.1,294.8,284.4,294.8z M295.5,323.7c0.3,2.6-0.3,5.5-2.3,7.5c-2.7,2.3-6.2,3.3-9.8,2.9c-6.8,0-10.1-2.3-10.1-7.5  c0-5.2,3.3-7.8,9.8-7.8h12.4V323.7z M327,300.6c3.9,0,7.8,1.6,10.1,4.9l4.2-4.2c-3.5-4.3-8.8-6.7-14.3-6.5  c-11.1,0-19.2,7.5-19.2,22.4c0,15,8.5,22.4,19.2,22.4c5.5,0.3,10.7-2.3,14.3-6.5l-4.2-4.2c-2.3,3.3-6.2,4.9-10.1,4.9  c-3.9,0.3-7.8-1.6-10.1-4.9c-2.3-3.6-3.3-7.5-2.9-11.7c-0.3-4.2,0.7-8.1,2.9-11.7C319.2,302.3,323.1,300.3,327,300.6z M381.7,295.4  h-7.8L354,314.6v-38.7h-6.5V339h6.5v-15.9l7.8-7.8l14.6,23.7h7.8l-18.2-28C366.1,311,381.7,295.4,381.7,295.4z M411.6,294.9  c-5.2-0.3-10.4,1.6-14,5.5c-4.2,4.2-5.2,9.4-5.2,17.6s1,13.3,5.2,17.6c3.6,3.6,8.8,5.5,14,5.5c5.2,0.3,10.4-1.6,14-5.5  c4.2-4.2,5.2-9.4,5.2-17.6s-1-13.3-5.2-17.6C422,296.6,416.9,294.6,411.6,294.9z M417.1,329.1c-2.9,2.6-7.5,2.6-10.4,0  c-2.3-2.3-2.6-6.5-2.6-11.1c0-4.6,0.3-8.8,2.6-11.1c2.9-2.6,7.5-2.6,10.4,0c2.3,2.3,2.6,6.2,2.6,11.1  C419.7,322.9,419.4,326.8,417.1,329.1z M461.4,295.2l-9.1,28l-9.1-28h-12l16.9,45.5h8.8l16.6-45.5  C473.4,295.2,461.4,295.2,461.4,295.2z M492.6,294.9c-11.7,0-19.8,8.5-19.8,23.1c0,18.5,10.4,23.4,21.1,23.4  c6.5,0.3,13-2.3,17.2-7.2l-6.8-6.8c-2.6,2.9-6.5,4.6-10.4,4.2c-5.2,0.3-9.8-3.6-10.1-8.8v-1.3h28.3v-5.2  C512.4,304,505.3,294.9,492.6,294.9z M483.8,313.8c0-1.6,0.3-3.3,1-4.9c1.3-2.9,4.2-4.6,7.5-4.6c3.3-0.3,6.2,1.6,7.5,4.6  c0.7,1.6,1,3.3,1,4.9H483.8L483.8,313.8z M527.2,299.8v-4.2h-11.1v45.5h11.4v-27.3c-0.3-4.2,2.6-7.8,6.8-8.5h0.7  c2.3,0,4.6,1,5.9,2.6l8.5-8.5c-2.8-3-6.7-4.5-10.7-4.2C534.3,294.9,530.1,296.5,527.2,299.8L527.2,299.8z M551.9,290.7v50.1h11.4  V305h8.5v-8.8h-8.5v-4.9c-0.3-2,1-3.9,2.9-4.2h5.2v-9.8h-6.5c-7-0.2-12.8,5.3-13,12.4c0,0,0,0,0,0  C551.9,289.7,551.9,290.7,551.9,290.7z M617.8,294.9c-5.2-0.3-10.4,1.6-14,5.5c-4.2,4.2-5.2,9.4-5.2,17.6s1,13.3,5.2,17.6  c3.6,3.6,8.8,5.5,14,5.5c5.2,0.3,10.4-1.6,14-5.5c4.2-4.2,5.2-9.4,5.2-17.6s-1-13.3-5.2-17.6C628.2,296.6,623,294.6,617.8,294.9z   M623.3,329.1c-2.9,2.6-7.5,2.6-10.4,0c-2.3-2.3-2.6-6.5-2.6-11.1c0-4.6,0.3-8.8,2.6-11.1c2.9-2.6,7.5-2.6,10.4,0  c2.3,2.3,2.6,6.2,2.6,11.1C625.9,322.9,625.6,326.8,623.3,329.1z M690.6,295.2l-7.5,28l-9.4-28h-8.1l-9.1,28.3l-7.5-28h-12l14,45.5  h9.4l9.4-28.6l9.4,28.6h9.8l14-45.5L690.6,295.2L690.6,295.2z M589.1,327.1v-49.4h-11.4v50.1c-0.4,6.8,4.9,12.6,11.7,13c0,0,0,0,0,0  h8.1V331h-4.2c-2,0.3-3.6-0.7-4.2-2.6C589.1,328.4,589.1,327.1,589.1,327.1z M267.8,296.4h-12v-14.3h-6.5v45.2  c0,6.5,3.6,11.7,11.1,11.7h4.6v-5.5h-3.3c-4.2,0-5.9-2.3-5.9-6.5v-25h6.2C262,301.9,267.8,296.4,267.8,296.4z"/>
<path class="st0" d="M181,347.1v-29.3h13v42.3H96.5v-42.3h13v29.3H181z"/>
<path class="st1" d="M171.6,324.3l2.2-9.6l-52.4-10.9l-2.2,10.8L171.6,324.3z M126.1,289.3l48.8,22.8l4.6-9.8l-48.8-22.8  C130.6,279.5,126.1,289.3,126.1,289.3z M139.7,265.2l41.3,34.5l6.8-8.1l-41.3-34.5C146.5,257.1,139.7,265.2,139.7,265.2z   M166.4,239.8l-8.8,6.5l32.2,43.3l8.8-6.5L166.4,239.8z M119.2,337.4h52v-9.8h-52V337.4z"/>
</svg>