<?xml version="1.0" ?><!-- Uploaded to: SVGRepo, www.svgrepo.com, Transformed by: SVGRepo Tools -->
<svg width="800px" height="800px" viewBox="0 0 200 200" data-name="Layer 1" id="Layer_1" xmlns="http://www.w3.org/2000/svg"><defs><style>.cls-1{fill:#fff;}.cls-2{fill:#ffc861;}.cls-3{fill:#2f4360;}.cls-4{fill:none;stroke:#2f4360;stroke-linecap:round;stroke-linejoin:round;stroke-width:6px;}</style></defs><title/><path class="cls-1" d="M180.77,164a11.28,11.28,0,0,1-10.82,8H30a11.33,11.33,0,0,1-9.81-17l70-121.16a11.32,11.32,0,0,1,19.62,0l70,121.16A11.15,11.15,0,0,1,180.77,164Z"/><path class="cls-2" d="M180.77,164H36.07c-8.72,0-5.17-9.44-.81-17l68.3-118.3a11.2,11.2,0,0,1,6.25,5.1l70,121.16A11.15,11.15,0,0,1,180.77,164Z"/><path class="cls-3" d="M101.69,139.57q-2.92-.07-5.84,0A4.72,4.72,0,0,1,91,135.15l-3.7-58.79a4.74,4.74,0,0,1,4.55-5q6.9-.25,13.81,0a4.74,4.74,0,0,1,4.55,5l-3.7,58.79A4.72,4.72,0,0,1,101.69,139.57Z"/><path class="cls-3" d="M105.62,149.69a6.88,6.88,0,0,1-13.69,0c-0.27-3.54,2.8-6.66,6.84-6.66S105.88,146.15,105.62,149.69Z"/><path class="cls-4" d="M20.23,154.92l70-121.16a11.33,11.33,0,0,1,19.63,0l70,121.16a11.33,11.33,0,0,1-9.81,17H30A11.33,11.33,0,0,1,20.23,154.92Z"/></svg>